HIERARCHY
ROOT Hips
{
	OFFSET -14.64140 90.27770 -84.91600
	CHANNELS 6 Xposition Yposition Zposition Zrotation Xrotation Yrotation
	JOINT Spine
	{
		OFFSET 0.00000 13.20850 -1.60436
		CHANNELS 3 Zrotation Xrotation Yrotation
		JOINT Spine1
		{
			OFFSET 0.00000 8.61716 0.00000
			CHANNELS 3 Zrotation Xrotation Yrotation
			JOINT Spine2
			{
				OFFSET 0.00000 8.61717 0.00000
				CHANNELS 3 Zrotation Xrotation Yrotation
				JOINT Spine3
				{
					OFFSET 0.00000 8.61717 0.00000
					CHANNELS 3 Zrotation Xrotation Yrotation
					JOINT Neck
					{
						OFFSET 0.00000 11.07920 1.10792
						CHANNELS 3 Zrotation Xrotation Yrotation
						JOINT Neck1
						{
							OFFSET 0.00000 7.08032 0.00000
							CHANNELS 3 Zrotation Xrotation Yrotation
							JOINT Head
							{
								OFFSET 0.00000 7.08031 0.00000
								CHANNELS 3 Zrotation Xrotation Yrotation
								End site
								{
									OFFSET 0.00000 0.00000 0.00000
								}
							}
						}
					}
					JOINT RightShoulder
					{
						OFFSET -0.01000 7.91373 5.19711
						CHANNELS 3 Zrotation Xrotation Yrotation
						JOINT RightArm
						{
							OFFSET -18.41580 0.00000 0.00000
							CHANNELS 3 Zrotation Xrotation Yrotation
							JOINT RightForeArm
							{
								OFFSET -29.11090 0.00000 0.00000
								CHANNELS 3 Zrotation Xrotation Yrotation
								JOINT RightHand
								{
									OFFSET -24.65040 0.00000 0.00000
									CHANNELS 3 Zrotation Xrotation Yrotation
									JOINT RightHandThumb1
									{
										OFFSET -5.35114 -0.85590 3.97906
										CHANNELS 3 Zrotation Xrotation Yrotation
										JOINT RightHandThumb2
										{
											OFFSET -4.52789 0.00000 0.00000
											CHANNELS 3 Zrotation Xrotation Yrotation
											JOINT RightHandThumb3
											{
												OFFSET -2.46976 0.00000 0.00000
												CHANNELS 3 Zrotation Xrotation Yrotation
												End site
												{
													OFFSET 0.00000 0.00000 0.00000
												}
											}
										}
									}
									JOINT RightHandIndex1
									{
										OFFSET -14.26970 0.00000 2.88139
										CHANNELS 3 Zrotation Xrotation Yrotation
										JOINT RightHandIndex2
										{
											OFFSET -5.48836 0.00000 0.00000
											CHANNELS 3 Zrotation Xrotation Yrotation
											JOINT RightHandIndex3
											{
												OFFSET -3.01859 0.00000 0.00000
												CHANNELS 3 Zrotation Xrotation Yrotation
												End site
												{
													OFFSET 0.00000 0.00000 0.00000
												}
											}
										}
									}
									JOINT RightHandMiddle1
									{
										OFFSET -14.26970 0.00000 -0.09147
										CHANNELS 3 Zrotation Xrotation Yrotation
										JOINT RightHandMiddle2
										{
											OFFSET -6.17441 0.00000 0.00000
											CHANNELS 3 Zrotation Xrotation Yrotation
											JOINT RightHandMiddle3
											{
												OFFSET -3.56743 0.00000 0.00000
												CHANNELS 3 Zrotation Xrotation Yrotation
												End site
												{
													OFFSET 0.00000 0.00000 0.00000
												}
											}
										}
									}
									JOINT RightHandRing1
									{
										OFFSET -12.69180 0.00000 -3.06433
										CHANNELS 3 Zrotation Xrotation Yrotation
										JOINT RightHandRing2
										{
											OFFSET -5.62556 0.00000 0.00000
											CHANNELS 3 Zrotation Xrotation Yrotation
											JOINT RightHandRing3
											{
												OFFSET -3.56744 0.00000 0.00000
												CHANNELS 3 Zrotation Xrotation Yrotation
												End site
												{
													OFFSET 0.00000 0.00000 0.00000
												}
											}
										}
									}
									JOINT RightHandPinky1
									{
										OFFSET -11.11390 0.00000 -6.03719
										CHANNELS 3 Zrotation Xrotation Yrotation
										JOINT RightHandPinky2
										{
											OFFSET -4.52789 0.00000 0.00000
											CHANNELS 3 Zrotation Xrotation Yrotation
											JOINT RightHandPinky3
											{
												OFFSET -2.46976 0.00000 0.00000
												CHANNELS 3 Zrotation Xrotation Yrotation
												End site
												{
													OFFSET 0.00000 0.00000 0.00000
												}
											}
										}
									}
								}
							}
						}
					}
					JOINT LeftShoulder
					{
						OFFSET 0.01000 7.91373 5.19711
						CHANNELS 3 Zrotation Xrotation Yrotation
						JOINT LeftArm
						{
							OFFSET 18.41580 0.00000 0.00000
							CHANNELS 3 Zrotation Xrotation Yrotation
							JOINT LeftForeArm
							{
								OFFSET 29.11090 0.00000 0.00000
								CHANNELS 3 Zrotation Xrotation Yrotation
								JOINT LeftHand
								{
									OFFSET 24.65040 0.00000 0.00000
									CHANNELS 3 Zrotation Xrotation Yrotation
									JOINT LeftHandThumb1
									{
										OFFSET 5.35114 -0.85590 3.97906
										CHANNELS 3 Zrotation Xrotation Yrotation
										JOINT LeftHandThumb2
										{
											OFFSET 4.52789 0.00000 0.00000
											CHANNELS 3 Zrotation Xrotation Yrotation
											JOINT LeftHandThumb3
											{
												OFFSET 2.46977 0.00000 0.00000
												CHANNELS 3 Zrotation Xrotation Yrotation
												End site
												{
													OFFSET 0.00000 0.00000 0.00000
												}
											}
										}
									}
									JOINT LeftHandIndex1
									{
										OFFSET 14.26970 0.00000 2.88139
										CHANNELS 3 Zrotation Xrotation Yrotation
										JOINT LeftHandIndex2
										{
											OFFSET 5.48836 0.00000 0.00000
											CHANNELS 3 Zrotation Xrotation Yrotation
											JOINT LeftHandIndex3
											{
												OFFSET 3.01859 0.00000 0.00000
												CHANNELS 3 Zrotation Xrotation Yrotation
												End site
												{
													OFFSET 0.00000 0.00000 0.00000
												}
											}
										}
									}
									JOINT LeftHandMiddle1
									{
										OFFSET 14.26970 0.00000 -0.09147
										CHANNELS 3 Zrotation Xrotation Yrotation
										JOINT LeftHandMiddle2
										{
											OFFSET 6.17440 0.00000 0.00000
											CHANNELS 3 Zrotation Xrotation Yrotation
											JOINT LeftHandMiddle3
											{
												OFFSET 3.56744 0.00000 0.00000
												CHANNELS 3 Zrotation Xrotation Yrotation
												End site
												{
													OFFSET 0.00000 0.00000 0.00000
												}
											}
										}
									}
									JOINT LeftHandRing1
									{
										OFFSET 12.69180 0.00000 -3.06433
										CHANNELS 3 Zrotation Xrotation Yrotation
										JOINT LeftHandRing2
										{
											OFFSET 5.62556 0.00000 0.00000
											CHANNELS 3 Zrotation Xrotation Yrotation
											JOINT LeftHandRing3
											{
												OFFSET 3.56744 0.00000 0.00000
												CHANNELS 3 Zrotation Xrotation Yrotation
												End site
												{
													OFFSET 0.00000 0.00000 0.00000
												}
											}
										}
									}
									JOINT LeftHandPinky1
									{
										OFFSET 11.11390 0.00000 -6.03719
										CHANNELS 3 Zrotation Xrotation Yrotation
										JOINT LeftHandPinky2
										{
											OFFSET 4.52789 0.00000 0.00000
											CHANNELS 3 Zrotation Xrotation Yrotation
											JOINT LeftHandPinky3
											{
												OFFSET 2.46976 0.00000 0.00000
												CHANNELS 3 Zrotation Xrotation Yrotation
												End site
												{
													OFFSET 0.00000 0.00000 0.00000
												}
											}
										}
									}
								}
							}
						}
					}
					JOINT pCube4
					{
						OFFSET 0.00000 10.91090 1.10792
						CHANNELS 3 Zrotation Xrotation Yrotation
						End site
						{
							OFFSET 0.00000 0.00000 0.00000
						}
					}
				}
			}
		}
	}
	JOINT RightUpLeg
	{
		OFFSET -9.98441 0.00000 0.00000
		CHANNELS 3 Zrotation Xrotation Yrotation
		JOINT RightLeg
		{
			OFFSET 0.00000 -42.11790 0.00000
			CHANNELS 3 Zrotation Xrotation Yrotation
			JOINT RightFoot
			{
				OFFSET 0.00000 -45.00020 -0.00001
				CHANNELS 3 Zrotation Xrotation Yrotation
				JOINT RightForeFoot
				{
					OFFSET 0.00000 -3.74820 0.00000
					CHANNELS 3 Zrotation Xrotation Yrotation
					JOINT RightToeBase
					{
						OFFSET 0.00000 0.06325 14.43120
						CHANNELS 3 Zrotation Xrotation Yrotation
						End site
						{
							OFFSET 0.00000 0.00000 0.00000
						}
					}
				}
			}
		}
	}
	JOINT LeftUpLeg
	{
		OFFSET 9.98441 0.00000 0.00000
		CHANNELS 3 Zrotation Xrotation Yrotation
		JOINT LeftLeg
		{
			OFFSET 0.00000 -42.11800 0.00000
			CHANNELS 3 Zrotation Xrotation Yrotation
			JOINT LeftFoot
			{
				OFFSET 0.00000 -45.00070 0.00000
				CHANNELS 3 Zrotation Xrotation Yrotation
				JOINT LeftForeFoot
				{
					OFFSET 0.00000 -3.74824 0.00000
					CHANNELS 3 Zrotation Xrotation Yrotation
					JOINT LeftToeBase
					{
						OFFSET 0.00000 0.06325 14.43110
						CHANNELS 3 Zrotation Xrotation Yrotation
						End site
						{
							OFFSET 0.00000 0.00000 0.00000
						}
					}
				}
			}
		}
	}
}
MOTION
Frames: 4
Frame Time: 0.050000
-0.0297436866035414 -0.005870030566550316 -0.04396016194725696 -0.02823403270019441 -0.014707737620465344 -0.04727196307177731 -4.749275357583558 7.442763512187243 -0.4426299524927004 -0.671737700081216 2.8446439775914802 0.4039826070157548 -0.9417103509649567 -0.023760905201402262 -1.24034457541212 -1.3466138313524412 0.33285805975291205 -1.0246110908596011 -0.9938047100874662 8.709908415224302 2.4147032548164127 -0.17492672112673524 -0.9044402097349108 2.2920154776510135 -0.6815790356719206 -14.796635395814096 0.2924869546001098 3.016445650747701 0.10069662703964663 -8.19930993520595 68.60728726988641 4.190162393901001 42.0398097410977 45.67825230989308 13.569799022583613 101.79881697051476 28.982094803859546 0.511943058386005 -15.266156769124425 4.564114098807075 -0.13862103266734943 -1.5709217521523602 -0.022152287324757807 -0.03410565069014851 -56.26130310775725 -0.022836120633460653 -0.003517667089958658 -56.271876972373896 -38.799260284795494 0.024752735205715044 -0.04940770710885789 -0.021888956664406642 0.02562267579164708 0.034135342655331094 0.015521072587352736 0.0005162935506120302 0.009590135313406118 -36.66604671057423 0.030471193661515447 0.04860311973105876 -0.012282186203740416 0.02148971270446039 0.04653441398044478 0.024251370547949784 0.009683579111539655 0.03008883906709993 -19.72475301999258 0.027934919586256376 0.009254245957209245 0.02256818617485927 -0.015270384476111865 -0.04950832324644235 -0.0024608141153930614 -0.023751031281276532 0.005970488643936811 24.0971442121655 -0.03301292306257029 -0.004821619744981863 28.828128998273698 -0.02340171957649441 0.0031292962635297308 28.859462263905996 0.028325459650626713 0.002223328022960374 0.2918794408487151 0.5718268181656165 7.639059377228543 -62.923140377157345 18.835410389347118 -39.64111200531534 -57.63913344639695 16.037811932891763 -109.94420123528091 -25.821642595582595 -7.392359916940764 5.3124590335031145 -0.46841914067010226 0.07165193082504691 -8.145881693251242 0.00016849155967058646 -0.008319325836091648 44.59822550665268 -0.005264956522786524 -0.006825110368757887 44.56627297555672 12.462608691145173 0.004197995700047209 -0.03531316782139331 0.031795425262462367 0.033880541067752 -0.0496599584335678 -0.016503398927169607 -0.02973637397971402 0.006388333177753295 11.102502285776154 -0.004872242291993731 -0.0396526964992416 0.0053721544669342826 -0.010066317570786807 0.0007677217904752351 -0.04094951324345178 -0.04289942938870897 0.026065972919128245 4.792801462722418 -0.04124885282364787 -0.0010055781064409438 0.005257717990533979 -0.021336445307042345 -0.03894016830073943 0.030866420732297836 -0.0010051097167917875 -0.04152399874022857 -5.5877765965520165 0.04435498031257274 0.013812951009752323 -6.749270402955918 -0.010205740745940764 0.02874562346922828 -6.6841150892237335 -0.002432239626713589 0.044016334904942216 0.010170882506420908 -0.04995776436730379 -0.037849762054693856 8.014720572435007 3.444918946829593 -19.259157603188232 0.002418262421535106 10.372239297748042 0.007849968518299597 -5.615678686845291 -15.682115401662232 3.20817530278849 0.01299189081534339 0.0059284892190665005 -0.011387449458901822 -0.005359590160976486 4.727399960579231 0.016540352719205013 12.418518707585491 -8.255356305107249 6.871449602713428 0.011764004586327922 46.37279366673436 0.018966620375551097 -4.330584825641412 -14.752050707642812 -3.840746793856241 -0.043385157301438874 0.0035097021992475438 -0.015490807716713644 -0.022319689695611752 -10.77629378226721 -0.0153480193582106 
0.0010089173567134448 0.006041751386063789 -0.0021719792801482302 -0.047315314383127326 0.043134258945509804 -0.029204683620439126 -4.86405317169439 7.445828354757117 -0.49826570472113085 -0.7350640916889738 2.8489530359566966 0.36243756563520063 -0.9401719597195313 -0.0720858823652452 -1.3506539633565535 -1.3620760973506676 0.2521095728493995 -0.9972282831672444 -1.0194397911315625 8.913571410334734 2.3987438640706293 -0.13548132889529657 -0.8058359888261886 2.3800860266423296 -0.7264924122298199 -14.691859413054859 0.2408452929804366 2.475353403295147 0.22404741134110315 -8.196788876992647 67.73805856032276 0.8407657706094509 44.90045437108503 43.63096812261798 12.809853821281301 102.11638330927636 29.33873652740578 0.44652469563696534 -15.044016404933199 4.563854074675618 -0.08865983913700613 -1.6123659171320723 -0.005847825461216549 0.024164710998258593 -56.26712308345663 0.03942658167314852 0.011370551532029139 -56.24462444556055 -38.742720760002115 0.04846497411108016 -0.04998905743455458 0.009178586253754178 -0.027550736762001888 -0.011617354353236933 -0.0016884277799060516 -0.015819600184414927 -0.01086515730674667 -36.6711632317486 -0.04001418581969754 -0.0026903210120710953 -0.012629853509038808 -0.01371197504377113 -0.032272280037245735 -0.0262966448962734 -0.008330422588998559 -0.010551344942705381 -19.760844821824865 0.0037120541854754247 0.027749709853024995 -0.02060020505797161 -0.041608807144466325 -0.015263286995369052 -0.0387262861706931 0.04608153544204186 0.036098818165182435 24.06775949806419 -0.00804263509731605 -0.03677439803305588 28.87285535264664 -0.003458604547548687 0.02015562256754187 28.886333502162937 0.02943295915743707 -0.04384432980684586 0.4822099452948696 0.5522936694612813 7.589155672241368 -62.20096569270435 18.393135884272265 -41.29479942719721 -51.5329382252665 14.980665235393731 -108.11605867132441 -24.781486917744676 -6.7373205373924865 4.618448702417976 -0.482867534770559 0.11604915042525343 -8.158918828103078 -0.044144673390350615 -0.00038629372508450715 44.58740405797436 -0.012757717521010467 -0.028206341533779287 44.58513692577055 12.474056813402662 -0.03672942708445964 -0.0009276854964238118 0.04119890648129963 -0.03100494012989074 -0.022662918265185353 -0.007274527640817168 -0.018845257428246644 -0.017473849592574822 11.115207626814643 -0.02280066276025852 0.022882097133930218 0.02357056953566911 0.011323762186180735 0.018282162869074327 0.0371051380220205 -0.03834975512769886 0.03535196171601862 4.732651271326274 -0.03627891450739308 -0.022389570976638712 0.0161302093538644 0.04711597112708801 0.02278213350016588 0.024270297006165568 0.004504594866759803 -0.004373617993880834 -5.603028787587178 -0.03842357602983338 0.00796826841873742 -6.71386648691813 0.0002992351410201248 -0.016041362934323025 -6.687436133559728 0.027828937345204904 -0.030972739954471817 0.029562266013574662 -0.032124246061769605 0.03984638010875548 8.033357193037629 3.524465186332542 -19.24425708933535 -0.021472576407112913 10.374979165369247 -0.028231724532808585 -5.603768414484367 -15.639341038642401 3.2113655306119133 -0.008073910691881186 0.03805278182036136 0.01634220786213455 -0.02027952886362261 4.698547134741867 -0.02349993954916163 12.4165253512946 -8.237793967780428 6.869897440226679 0.013342458717086966 46.42514216563888 0.011620787198174113 -4.346721287359542 -14.740699222109681 -3.8220897974806305 -0.016349310603526266 0.009296276963594231 -0.0001687708795226337 0.02000097504508647 -10.786834720939408 -0.04545320883886375 
0.004459320100839137 -0.010207056100259876 0.02926360943239765 -0.004277236693621004 -0.049296334392375595 0.010175822249644542 -5.024254166470839 7.5724353299934295 -0.5140702764982875 -0.6811229892079002 2.840035957143468 0.41544642251132274 -1.0013864947950095 -0.12432293335267444 -1.3685873580721701 -1.4007550001330533 0.24604372001804595 -1.022378851401521 -0.8348714335401567 8.916928227193324 2.259712752802563 -0.14156055876976598 -0.7332926488930746 1.9406178700239516 -0.5867558085604863 -14.532464009978483 0.21443402245988458 2.279965413801862 0.29201584846347833 -8.207463554724454 66.5827296532619 -1.8665337693567257 46.0094659511615 41.340960361814545 12.372506889329253 102.84442869109684 29.931483123221213 0.5096693238876489 -15.01348446371748 4.529118453591486 -0.11977920123073812 -1.613102819876304 -0.03399525353709846 0.04962952038498025 -56.24154294984314 -0.0008036500399923616 -0.010586081516874147 -56.283390914295616 -38.74789627575012 0.03932523232564414 -0.031537984302664294 0.00269944261533889 0.03432935364011987 0.017465743379755386 0.005924196418027268 0.0013168007555901238 0.02488574352740617 -36.668241948783056 -0.020077258280985107 0.01034456763804476 -0.02812017411735556 -0.005228702354593183 -0.034165746891540574 -0.013119409590705945 -0.04962881395673547 -0.004678623098069611 -19.736681759872724 -0.041356863209149226 0.021420027513798692 0.03471740333844196 0.003595748086673542 0.03260819403225391 0.028588926297855807 -0.010288964823893246 -0.00777708486757232 24.100508813100806 0.023560000046154113 -0.017901671560695127 28.896615221168535 -0.007935242739147839 0.0018604327927905443 28.846463899535845 0.03746251329938309 -0.01480267378914463 0.19468028250498526 0.5471017631522757 7.614660487170356 -61.14086500617747 19.026640658505535 -41.28616274675986 -43.96029693821856 13.728201511285466 -106.48828623946861 -24.004857643838477 -6.3301391178607895 4.176352148330636 -0.4928816097998645 0.04840246290830048 -8.122233031090397 0.010352581440777874 -0.004596683379660295 44.56987728350581 -0.02659898140616674 -0.020443193478447665 44.535399322916675 12.445632985825645 -0.005294891681482999 0.025972739555677294 -0.011218411153807686 -0.020092605513958108 0.009060347270257132 0.005187304806744526 -0.018580846752968637 0.03447442146848515 11.099158106918395 -0.003955928741385917 -0.045880672048659414 -0.041433037301162504 -0.030793750318549452 0.005300832698075553 -0.01751804359203353 0.013909670973134548 -0.04504005738209187 4.773920618419481 -0.04233957722882549 -0.0038417718474713326 -0.025452767817226194 -0.032580342791697775 0.04034835313032263 0.00893987814037348 -0.0105209091211299 -0.04123328433359622 -5.570948645225003 -0.010019824332774931 0.040767311556025726 -6.694924376873573 0.0010730258460778213 -0.047623878989852264 -6.705089125501468 0.024355621492455563 0.005098931582723522 -0.02644109623039135 0.037367574288418415 -0.0019443606190092252 8.070338907332491 3.462676002901594 -19.23170070590301 0.01685871685887553 10.423302237209516 0.05325156828635941 -5.612405523061037 -15.6690203835232 3.188799400495554 0.022131255138604977 0.039052579165086525 -0.0088186046383673 0.028251405955614015 4.699316854840145 -0.01851302064075526 12.440641759484443 -8.23868915143542 6.837881527715061 0.039069455073555685 46.4017482101024 0.008910117793297366 -4.336285175309843 -14.73914507451928 -3.8494695393944105 0.01281446232332717 0.03646557687595867 0.015121193591326895 0.01400411876312302 -10.720507942727597 -0.033032407794056355 
-0.04084486569802433 0.030367502315993156 -0.01557415015587774 -0.014089452348130452 -0.02979661947842039 0.019071194890217368 -5.0331278882112125 7.5510755739969575 -0.4832176895826139 -0.7102305232941486 2.8527717508714585 0.40877136916651696 -0.9956061019139589 -0.09279190877629333 -1.3537552195152363 -1.3745655725092292 0.30312838841178885 -1.0015927896161558 -0.6872115873862779 8.919131973833773 1.8948831036627891 -0.10319617329170619 -0.6028236302014585 1.2021595772406428 -0.5380741788993753 -14.34108079100257 0.14187864404080713 2.2266765926989933 0.3565889244719665 -8.407702865251991 65.58601215561565 -3.991480675534971 46.337158266340616 37.55740403974206 11.426620258150564 103.59426242837571 29.73021488703715 0.45639353638467256 -14.592670416484626 4.5362236330883805 -0.12112041136905177 -1.591389914153988 0.011979125857474947 -0.022993264848522876 -56.26988379015945 0.04595500770705279 0.026195084659128162 -56.24221979944642 -38.76914461507474 -0.03855930732483948 -0.02223177883669299 0.04650006539821335 0.027779730994839873 -0.039156719556692844 -0.033935918890501855 -0.012247760817771552 -0.0010797876249563835 -36.699251058612745 0.04705091201762764 -0.004424402466873396 0.03994191835533936 0.03469927271119726 0.007611319093930606 0.01831406653327695 -0.04366912291106305 0.03292915432701631 -19.72236950292404 0.044938764098910754 0.04284602499303259 -0.0005255702916099612 0.011531253450415372 -0.03403536963605234 0.005208825694318568 0.009413407272403035 0.02756783372769202 24.055722424067106 -0.015175646429831088 0.04339982988774674 28.833280176337645 -0.0290419599217788 -0.006107510478996537 28.88458136222352 0.004563954793935257 0.004691257183458319 -0.0731271773581332 0.476163831818647 7.629314361450733 -59.87915256155301 20.244738556694774 -40.97769977102556 -32.94842334925045 10.671849099677758 -104.64131577420386 -22.311658501832973 -5.738138502795834 3.5820971441944844 -0.47074058473458347 0.040041594062067074 -8.093934373720547 -0.012983657393472651 -0.033374721410116694 44.579774684089536 0.03648616887683549 -0.015088883012546263 44.5904354024478 12.43570706676535 -0.002033685465129035 0.022694098169055016 -0.04233691683291367 -0.02568829445862479 0.02332748814832786 -0.036397886994724425 0.0376458771661721 -0.02117823294688727 11.072265566147724 0.035941674598197505 -0.028608128693456136 -0.03417102570420903 0.0005300578376672687 -0.021508377295979236 0.015429920793404267 0.006945171710631851 0.008502636306412695 4.732136234627541 0.011982741013875501 -0.036368624122671486 -0.007998205802339654 -0.002514668160263173 0.01811125934166034 0.02770541230505337 -0.014887596495241776 0.01989088378532599 -5.591571111208074 -0.044833921723690065 0.010057768323678086 -6.717424966579386 -0.048543711459791215 0.0008185538104650718 -6.700943114016512 -0.03160561460048291 -0.048767575258244385 -0.003736540882329667 0.017698132780100916 -0.021362647319405095 8.001568048052714 3.5343136877683934 -19.174911934857793 0.001901225840124301 10.365563370914622 -0.001627545611596913 -5.6617105902103155 -15.6244880100581 3.1484793435122698 0.03091475824240328 -0.009002384911192459 0.014975824213629252 0.0013684351201011817 4.715365568607263 -0.005053802374164932 12.433932011229857 -8.249066189352934 6.899099305925865 -0.005563283056421039 46.35379882187958 -0.01578940006235546 -4.342243619047854 -14.70704351942543 -3.798330607598253 -0.014167450673179488 0.03329320535561143 -0.009544564042966622 0.03869706438856314 -10.778701947758945 0.015608466746399178 
